# xmcd CD database file
#
# Track frame offsets:
#	150
#	40314
#	66863
#	210167
#	257043
#	280506
#
# Disc length: 4355 seconds
#
# Revision: 2
# Processed by: cddbd v1.4b41PL1 Copyright (c) Steve Scherf et al.
# Submitted via: Feurio! 1.50.2ß - http://www.feurio.com
#
DISCID=4d110106
DTITLE=Grateful Dead - Fallout From The Phil Zone Disc 1
DYEAR=1900
DGENRE=
TTITLE0=The Music Never Stopped
TTITLE1=Jack-A-Roe
TTITLE2=Midnight Hour
TTITLE3=Visions Of Johanna
TTITLE4=Box Of Rain
TTITLE5=Someday Baby
EXTD=
EXTT0=
EXTT1=
EXTT2=
EXTT3=
EXTT4=
EXTT5=
PLAYORDER=
